# xmcd
#
# Track frame offsets: 
#        150
#        8955
#        18589
#        29273
#        38290
#        45918
#        55438
#        69392
#        77396
#        86082
#        95293
#        102523
#
# Disc length: 1473 seconds
#
# Revision: 0
# Processed by: cddbd v1.5.2PL0 Copyright (c) Steve Scherf et al.
# Submitted via: ExactAudioCopy v0.95b3
#
DISCID=8405bf0c
DTITLE=Dick Dale  - Checkered Flag - 1963
DYEAR=1900
DGENRE=
TTITLE0=The Scavenger
TTITLE1=Surf Buggy
TTITLE2=Hot Rod Racer
TTITLE3=Mag Wheels
TTITLE4=Big Black Cad
TTITLE5=Ho-Dad Machine
TTITLE6=Grudge Run
TTITLE7=Motion
TTITLE8=426 - Super Stock
TTITLE9=The Wedge
TTITLE10=It Will Grow On You
TTITLE11=Night Rider
EXTD=
EXTT0=
EXTT1=
EXTT2=
EXTT3=
EXTT4=
EXTT5=
EXTT6=
EXTT7=
EXTT8=
EXTT9=
EXTT10=
EXTT11=
PLAYORDER=
